<svg version="1.1" id="Layer_1" xmlns="http://www.w3.org/2000/svg" xmlns:xlink="http://www.w3.org/1999/xlink" x="0px" y="0px"
	 width="100%" viewBox="0 0 496 496" enable-background="new 0 0 496 496" xml:space="preserve">
<path fill="#000000" opacity="1.000000" stroke="none" 
	d="
M112.437500,497.000000 
	C112.036491,486.186279 112.033699,475.372253 112.124947,464.558990 
	C112.175537,458.565033 112.354645,452.571564 112.527962,446.579376 
	C112.719704,439.949554 111.880753,439.092560 105.337646,438.989807 
	C96.539948,438.851624 87.705284,439.700409 79.005180,437.394501 
	C61.547897,432.767578 49.331608,414.040527 49.476646,398.930725 
	C49.945251,350.112610 49.649887,301.287231 49.651058,252.464645 
	C49.651493,234.415619 61.013763,221.398193 79.117073,218.628922 
	C83.250977,217.996552 87.395767,217.822052 91.567871,217.822952 
	C122.727592,217.829636 153.887329,217.819229 185.046997,217.771683 
	C187.135147,217.768509 189.387924,218.342972 191.307404,216.715454 
	C191.613586,214.336807 189.949387,212.683640 189.119247,210.769989 
	C185.774399,203.059265 184.273041,195.100571 186.820618,186.946381 
	C190.541458,175.036819 194.650040,163.248398 198.594925,151.408859 
	C198.859177,150.615753 199.118744,149.813034 200.242233,149.487274 
	C202.290741,149.712509 203.385086,151.554382 204.762207,152.893097 
	C225.668732,173.216583 246.574478,193.541245 267.379883,213.968018 
	C270.087097,216.625961 272.540161,217.569550 276.572449,216.988693 
	C306.174591,212.724304 335.833466,208.853439 365.476593,204.874176 
	C366.612213,204.721725 367.794342,204.505829 368.894348,205.254105 
	C369.751709,206.538773 369.100311,207.773132 368.694611,209.010391 
	C367.190674,213.597137 365.742859,218.203629 364.153778,222.760788 
	C361.978973,228.997726 359.266693,235.000732 363.137787,241.764847 
	C364.730042,244.547028 364.327209,248.226837 364.324554,251.581787 
	C364.286346,299.904449 363.510651,348.245911 364.661713,396.541199 
	C365.168182,417.791534 347.225372,439.396790 321.593689,439.139496 
	C277.274597,438.694550 232.947601,439.075470 188.624527,438.926422 
	C183.960892,438.910736 180.533417,440.192688 177.079590,443.387421 
	C158.736099,460.355133 140.154510,477.065399 121.667488,493.878113 
	C120.813797,494.654480 120.076553,495.558929 119.142532,496.701843 
	C116.958336,497.000000 114.916664,497.000000 112.437500,497.000000 
M342.248199,255.935669 
	C337.442444,257.813110 332.634125,259.731750 327.508270,260.527679 
	C304.199463,264.147034 280.881409,267.707123 257.566345,271.286133 
	C254.374786,271.776093 251.890869,270.693176 249.459610,268.490509 
	C237.114548,257.306122 224.570755,246.341095 212.219452,235.163483 
	C209.188614,232.420654 206.030334,231.284500 201.893127,231.301010 
	C166.904861,231.440704 131.915741,231.396240 96.927010,231.332825 
	C93.386810,231.326416 89.918945,231.706268 86.553368,232.616821 
	C74.680290,235.829041 61.875080,244.904510 62.151443,263.540131 
	C62.764080,304.851257 62.505604,346.178528 62.279690,387.497437 
	C62.169941,407.570221 82.696892,424.589539 97.785095,422.891022 
	C103.215157,422.279724 108.784065,423.017487 114.264687,422.703918 
	C118.826569,422.442871 120.403023,424.045563 120.328522,428.676849 
	C120.095436,443.168396 120.233292,457.666229 120.275017,472.161469 
	C120.280853,474.188538 119.912033,476.357727 121.384537,478.432617 
	C122.697151,477.353790 123.750931,476.560852 124.722931,475.677917 
	C142.725479,459.324921 160.775223,443.022949 178.656158,426.537903 
	C181.577972,423.844208 184.505630,422.724792 188.448151,422.734985 
	C232.100616,422.847992 275.753479,422.838531 319.406189,422.806549 
	C336.765198,422.793854 353.583984,406.189331 353.619507,388.841736 
	C353.707581,345.855621 353.646851,302.869232 353.647308,259.882935 
	C353.647339,257.042297 353.402313,254.270660 351.393524,251.550354 
	C348.541534,252.908920 345.733337,254.246628 342.248199,255.935669 
z"/>
<path fill="#000000" opacity="1.000000" stroke="none" 
	d="
M310.351013,191.450226 
	C300.223694,192.998459 290.527374,194.460449 280.845612,196.013168 
	C277.777222,196.505264 276.324066,194.286224 274.640839,192.546097 
	C254.596558,171.824387 234.584381,151.071625 214.571579,130.319473 
	C188.196838,102.970352 161.823700,75.619690 135.471542,48.248825 
	C133.896545,46.612946 131.991180,45.174923 131.086929,42.451790 
	C139.353851,39.759678 147.786942,39.195267 156.019073,37.766201 
	C183.342804,33.022907 210.707825,28.516932 238.062088,23.950294 
	C270.504425,18.534224 302.955536,13.170579 335.392731,7.723948 
	C339.290619,7.069444 342.167358,7.913680 345.079529,10.947230 
	C391.472687,59.274384 438.000488,107.472290 484.473083,155.723282 
	C485.808868,157.110184 487.697174,158.198288 487.808624,160.969238 
	C481.145569,163.311707 474.022583,163.913284 467.093140,165.282150 
	C453.721619,167.923615 440.319458,170.417953 426.898285,172.794220 
	C423.570862,173.383362 421.694153,174.798965 420.602814,178.125107 
	C412.558136,202.643143 404.248596,227.074310 396.214691,251.595825 
	C391.874664,264.842651 393.775970,270.389526 405.071381,278.596497 
	C407.046265,280.031372 407.657837,281.281647 406.817780,283.559753 
	C405.321106,287.618591 403.902588,291.716187 402.694519,295.868317 
	C401.754059,299.100647 400.160187,299.587769 397.149353,298.309479 
	C377.847534,290.114563 368.548676,271.308289 374.719299,251.225479 
	C380.778534,231.505142 387.419769,211.959961 394.030273,192.413910 
	C398.704193,178.594055 398.598633,178.290680 384.267670,180.456573 
	C360.767731,184.008209 337.274841,187.606430 313.776794,191.170761 
	C312.791534,191.320221 311.784546,191.326248 310.351013,191.450226 
z"/>
<path fill="#000000" opacity="1.000000" stroke="none" 
	d="
M257.802521,328.457916 
	C240.704147,319.194855 238.522842,297.568970 248.722763,284.884796 
	C255.933868,275.917358 269.019196,272.226501 280.798584,276.198273 
	C291.921631,279.948730 298.729279,290.171143 299.465820,301.921051 
	C300.763000,322.615356 278.713837,338.291107 257.802521,328.457916 
z"/>
<path fill="#000000" opacity="1.000000" stroke="none" 
	d="
M173.539169,311.962708 
	C169.152237,323.464142 161.252716,330.161377 149.332535,331.242340 
	C136.869995,332.372498 126.957100,327.489349 121.237160,316.272217 
	C114.402802,302.869598 118.039261,284.231171 134.937042,276.801300 
	C150.152969,270.110901 168.106659,277.813843 173.298767,293.337555 
	C175.286011,299.279114 174.691940,305.463348 173.539169,311.962708 
z"/>
<path fill="#000000" opacity="1.000000" stroke="none" 
	d="
M208.843719,394.895172 
	C185.844818,394.370239 166.498657,385.527588 149.054153,371.852814 
	C143.758209,367.701324 142.730148,362.757446 146.065903,358.541626 
	C149.238770,354.531647 154.182968,354.293701 159.349716,358.117340 
	C169.857651,365.893738 180.866150,372.828522 193.813324,375.565918 
	C212.966278,379.615356 230.793488,375.683441 247.263641,365.317047 
	C250.921036,363.015076 254.446274,360.497345 257.974670,357.997498 
	C263.137909,354.339294 268.608734,354.537445 271.694214,358.581207 
	C274.835144,362.697662 273.568909,367.705231 268.156677,371.801331 
	C251.276535,384.576721 233.034637,393.987946 211.258194,394.540161 
	C210.599319,394.556885 209.944809,394.746826 208.843719,394.895172 
z"/>
</svg>